<?xml version="1.0" standalone="no"?>
<!DOCTYPE svg PUBLIC "-//W3C//DTD SVG 20010904//EN"
 "http://www.w3.org/TR/2001/REC-SVG-20010904/DTD/svg10.dtd">
<svg version="1.0" xmlns="http://www.w3.org/2000/svg"
 width="640.000000pt" height="640.000000pt" viewBox="0 0 640.000000 640.000000"
 preserveAspectRatio="xMidYMid meet">
<metadata>
Created by potrace 1.14, written by Peter Selinger 2001-2017
</metadata>
<g transform="translate(0.000000,640.000000) scale(0.100000,-0.100000)"
fill="#000000" stroke="none">
<path d="M1003 4229 c-18 -5 -33 -14 -33 -19 0 -15 45 -85 112 -172 l59 -78
-68 0 c-90 0 -284 -17 -353 -31 -89 -18 -187 -74 -260 -148 -101 -101 -140
-203 -140 -366 0 -145 49 -271 142 -367 123 -126 300 -157 953 -164 370 -5
417 -7 477 -25 110 -32 171 -113 154 -204 -10 -49 -70 -107 -142 -136 l-59
-24 -922 -3 -923 -3 0 -165 0 -165 1013 3 1012 3 73 27 c104 38 175 83 243
156 116 123 163 281 128 431 -37 162 -187 311 -374 372 -30 9 -188 14 -635 19
l-595 5 -67 26 c-90 35 -131 68 -162 131 -57 114 -11 248 106 309 96 49 143
53 626 54 l452 0 0 133 0 132 -133 0 c-129 0 -136 1 -195 31 -49 24 -81 52
-152 132 -50 56 -101 105 -113 109 -33 9 -188 7 -224 -3z"/>
<path d="M2020 3830 l0 -140 975 0 c1052 0 1002 2 1051 -52 79 -86 69 -215
-22 -284 l-37 -29 -641 -5 c-616 -5 -642 -6 -674 -25 -18 -11 -41 -38 -52 -60
-19 -40 -20 -64 -20 -558 l0 -517 155 0 155 0 2 308 3 307 40 3 c34 2 54 -6
140 -61 55 -35 281 -174 501 -310 l401 -247 260 2 260 3 -599 380 c-330 209
-615 393 -634 408 -37 31 -44 60 -16 73 9 4 200 11 423 15 255 5 422 12 450
19 146 39 270 176 309 339 17 74 8 211 -20 283 -45 119 -142 218 -258 261 -57
22 -59 22 -1104 25 l-1048 3 0 -141z"/>
<path d="M4729 3898 c-143 -205 -227 -402 -264 -627 -63 -374 86 -878 317
-1075 l42 -36 688 0 688 0 0 23 c0 12 -5 108 -12 214 l-11 192 -58 -63 c-79
-86 -180 -153 -243 -162 -46 -6 -49 -5 -42 12 5 11 13 49 20 86 11 64 13 68
80 130 83 75 156 171 156 204 0 35 -37 122 -81 190 l-39 60 24 95 c14 53 28
127 31 166 l7 72 47 11 46 11 -6 94 c-4 58 -12 101 -20 112 -12 14 -12 16 0 8
12 -7 13 11 7 111 -3 65 -9 147 -12 182 l-6 62 -654 0 -653 0 -52 -72z m953
-60 c9 -1 15 -4 13 -7 -3 -2 20 -19 50 -38 62 -39 66 -52 39 -138 l-16 -51
-85 -17 c-46 -10 -120 -29 -163 -43 l-79 -25 -43 22 c-57 29 -146 59 -176 59
-23 0 -24 3 -18 38 4 20 14 58 22 83 14 44 19 48 86 79 40 18 86 37 102 41 27
7 218 5 268 -3z m99 -27 c67 -23 195 -87 204 -102 6 -8 2 -8 -12 0 -11 5 -51
19 -89 29 -38 11 -94 36 -124 56 -62 41 -57 44 21 17z m-565 -73 c-3 -13 -11
-51 -18 -85 -8 -46 -16 -64 -32 -71 -35 -16 -123 -100 -162 -155 -21 -29 -44
-58 -53 -64 -8 -7 -10 -13 -4 -13 6 0 16 -21 22 -46 14 -55 50 -127 84 -168
l24 -30 -18 -70 c-10 -39 -24 -115 -31 -168 l-12 -97 -62 -15 c-35 -9 -67 -16
-72 -16 -11 0 -67 111 -98 195 -13 33 -23 53 -23 44 -1 -24 33 -117 68 -186
17 -34 42 -91 55 -127 14 -35 33 -77 43 -92 10 -16 12 -25 5 -20 -23 14 -93
126 -123 198 -17 39 -37 101 -44 137 -19 94 -13 240 14 324 22 67 22 67 89
102 37 19 63 34 59 35 -4 0 -30 -11 -57 -25 -27 -14 -52 -25 -55 -25 -3 0 -5
15 -5 33 0 43 46 137 104 214 79 104 222 213 279 213 26 0 29 -3 23 -22z m614
-178 c25 -16 78 -63 117 -103 l71 -72 -5 -55 c-6 -69 -41 -248 -53 -270 -8
-15 -122 -51 -270 -85 -25 -5 -72 31 -262 201 l-37 33 14 78 c8 43 22 110 30
150 16 71 17 72 58 87 54 20 235 64 266 65 13 1 45 -12 71 -29z m-284 -503
c100 -86 111 -99 107 -124 -15 -100 -57 -280 -66 -289 -15 -14 -148 -58 -241
-79 l-68 -16 -41 28 c-22 15 -79 64 -125 108 l-84 79 6 70 c6 65 22 145 47
238 8 33 15 38 62 52 28 9 95 29 147 45 l95 29 25 -22 c14 -13 75 -66 136
-119z m86 -446 c18 -11 75 -34 127 -52 l93 -32 -6 -54 c-12 -100 -23 -115
-121 -157 -118 -51 -169 -55 -270 -22 -44 15 -105 39 -135 54 -54 26 -55 28
-53 67 1 22 5 58 8 81 l6 40 92 23 c72 17 160 45 224 70 1 1 17 -8 35 -18z
m-437 -229 c33 -11 87 -32 120 -47 33 -15 83 -36 110 -46 l50 -18 -40 5 c-128
18 -300 88 -375 153 l-35 30 55 -28 c30 -16 82 -38 115 -49z"/>
</g>
</svg>
